<?xml version="1.0" encoding="UTF-8" standalone="no"?>
<!DOCTYPE svg PUBLIC "-//W3C//DTD SVG 1.1//EN"
 "http://www.w3.org/Graphics/SVG/1.1/DTD/svg11.dtd">
<!-- Generated by graphviz version 2.36.0 (20140111.2315)
 -->
<!-- Title: finite_state_machine Pages: 1 -->
<svg width="564pt" height="381pt"
 viewBox="0.00 0.00 564.00 380.62" xmlns="http://www.w3.org/2000/svg" xmlns:xlink="http://www.w3.org/1999/xlink">
<g id="graph0" class="graph" transform="scale(1 1) rotate(0) translate(4 376.615)">
<title>finite_state_machine</title>
<polygon fill="white" stroke="none" points="-4,4 -4,-376.615 560,-376.615 560,4 -4,4"/>
<!-- hot -->
<g id="node1" class="node"><title>hot</title>
<ellipse fill="none" stroke="black" cx="26" cy="-186.615" rx="22.1814" ry="22.1814"/>
<ellipse fill="none" stroke="black" cx="26" cy="-186.615" rx="26.1964" ry="26.1964"/>
<text text-anchor="middle" x="26" y="-182.915" font-family="Times,serif" font-size="14.00">hot</text>
</g>
<!-- hot_go_hot -->
<g id="node3" class="node"><title>hot_go_hot</title>
<ellipse fill="none" stroke="black" cx="184" cy="-153.615" rx="35.194" ry="35.194"/>
<text text-anchor="middle" x="184" y="-149.915" font-family="Times,serif" font-size="14.00">go_hot</text>
</g>
<!-- hot&#45;&gt;hot_go_hot -->
<g id="edge1" class="edge"><title>hot&#45;&gt;hot_go_hot</title>
<path fill="none" stroke="black" d="M49.7522,-175.081C56.1621,-172.243 63.2347,-169.485 70,-167.615 92.2689,-161.46 117.757,-158.007 138.884,-156.072"/>
<polygon fill="black" stroke="black" points="139.197,-159.558 148.871,-155.238 138.615,-152.582 139.197,-159.558"/>
</g>
<!-- hot_go_cold -->
<g id="node5" class="node"><title>hot_go_cold</title>
<ellipse fill="none" stroke="black" cx="184" cy="-61.6151" rx="38.9931" ry="38.9931"/>
<text text-anchor="middle" x="184" y="-57.9151" font-family="Times,serif" font-size="14.00">go_cold</text>
</g>
<!-- hot&#45;&gt;hot_go_cold -->
<g id="edge2" class="edge"><title>hot&#45;&gt;hot_go_cold</title>
<path fill="none" stroke="black" d="M32.4593,-161.317C38.2847,-140.281 49.575,-111.059 70,-93.6151 88.0026,-78.2402 112.921,-70.2292 134.778,-66.0651"/>
<polygon fill="black" stroke="black" points="135.612,-69.4739 144.892,-64.3622 134.45,-62.5711 135.612,-69.4739"/>
</g>
<!-- hot_go_random -->
<g id="node7" class="node"><title>hot_go_random</title>
<ellipse fill="none" stroke="black" cx="184" cy="-257.615" rx="51.1914" ry="51.1914"/>
<text text-anchor="middle" x="184" y="-253.915" font-family="Times,serif" font-size="14.00">go_random</text>
</g>
<!-- hot&#45;&gt;hot_go_random -->
<g id="edge3" class="edge"><title>hot&#45;&gt;hot_go_random</title>
<path fill="none" stroke="black" d="M50.0183,-197.091C70.4126,-206.373 101.01,-220.299 127.716,-232.454"/>
<polygon fill="black" stroke="black" points="126.425,-235.711 136.976,-236.668 129.324,-229.34 126.425,-235.711"/>
</g>
<!-- cold -->
<g id="node2" class="node"><title>cold</title>
<ellipse fill="none" stroke="black" cx="342" cy="-186.615" rx="25.9957" ry="25.9957"/>
<ellipse fill="none" stroke="black" cx="342" cy="-186.615" rx="29.9954" ry="29.9954"/>
<text text-anchor="middle" x="342" y="-182.915" font-family="Times,serif" font-size="14.00">cold</text>
</g>
<!-- cold_go_hot -->
<g id="node4" class="node"><title>cold_go_hot</title>
<ellipse fill="none" stroke="black" cx="504" cy="-217.615" rx="35.194" ry="35.194"/>
<text text-anchor="middle" x="504" y="-213.915" font-family="Times,serif" font-size="14.00">go_hot</text>
</g>
<!-- cold&#45;&gt;cold_go_hot -->
<g id="edge10" class="edge"><title>cold&#45;&gt;cold_go_hot</title>
<path fill="none" stroke="black" d="M371.804,-190.379C389.762,-192.89 413.309,-196.483 434,-200.615 442.435,-202.3 451.393,-204.327 459.964,-206.387"/>
<polygon fill="black" stroke="black" points="459.247,-209.814 469.793,-208.8 460.916,-203.016 459.247,-209.814"/>
</g>
<!-- cold_go_cold -->
<g id="node6" class="node"><title>cold_go_cold</title>
<ellipse fill="none" stroke="black" cx="504" cy="-123.615" rx="38.9931" ry="38.9931"/>
<text text-anchor="middle" x="504" y="-119.915" font-family="Times,serif" font-size="14.00">go_cold</text>
</g>
<!-- cold&#45;&gt;cold_go_cold -->
<g id="edge11" class="edge"><title>cold&#45;&gt;cold_go_cold</title>
<path fill="none" stroke="black" d="M359.897,-162.907C367.914,-153.47 378.303,-143.479 390,-137.615 409.728,-127.724 433.739,-123.797 454.546,-122.514"/>
<polygon fill="black" stroke="black" points="454.941,-126 464.782,-122.074 454.641,-119.007 454.941,-126"/>
</g>
<!-- cold_go_random -->
<g id="node8" class="node"><title>cold_go_random</title>
<ellipse fill="none" stroke="black" cx="504" cy="-321.615" rx="51.1914" ry="51.1914"/>
<text text-anchor="middle" x="504" y="-317.915" font-family="Times,serif" font-size="14.00">go_random</text>
</g>
<!-- cold&#45;&gt;cold_go_random -->
<g id="edge12" class="edge"><title>cold&#45;&gt;cold_go_random</title>
<path fill="none" stroke="black" d="M348.879,-215.411C355.151,-238.922 367.404,-271.309 390,-290.615 404.749,-303.217 424.19,-310.732 442.78,-315.201"/>
<polygon fill="black" stroke="black" points="442.177,-318.651 452.689,-317.327 443.646,-311.807 442.177,-318.651"/>
</g>
<!-- hot_go_hot&#45;&gt;hot -->
<g id="edge4" class="edge"><title>hot_go_hot&#45;&gt;hot</title>
<path fill="none" stroke="black" d="M149.4,-160.723C123.48,-166.206 87.7522,-173.764 61.5874,-179.299"/>
<polygon fill="black" stroke="black" points="60.7778,-175.892 51.7187,-181.386 62.2265,-182.741 60.7778,-175.892"/>
<text text-anchor="middle" x="92" y="-181.415" font-family="Times,serif" font-size="14.00">0.95, &#45;1</text>
</g>
<!-- hot_go_hot&#45;&gt;cold -->
<g id="edge5" class="edge"><title>hot_go_hot&#45;&gt;cold</title>
<path fill="none" stroke="black" d="M218.466,-160.694C243.204,-165.928 276.93,-173.062 302.737,-178.521"/>
<polygon fill="black" stroke="black" points="302.049,-181.953 312.557,-180.598 303.497,-175.104 302.049,-181.953"/>
<text text-anchor="middle" x="274" y="-180.415" font-family="Times,serif" font-size="14.00">0.05, 1</text>
</g>
<!-- cold_go_hot&#45;&gt;hot -->
<g id="edge13" class="edge"><title>cold_go_hot&#45;&gt;hot</title>
<path fill="none" stroke="black" d="M476.49,-239.384C468.435,-246.288 459.687,-254.088 452,-261.615 443.456,-269.982 444.443,-275.788 434,-281.615 374.979,-314.545 195.622,-340.42 132,-317.615 87.424,-301.637 57.1377,-253.18 40.9566,-219.902"/>
<polygon fill="black" stroke="black" points="43.9837,-218.113 36.577,-210.537 37.6428,-221.078 43.9837,-218.113"/>
<text text-anchor="middle" x="274" y="-327.415" font-family="Times,serif" font-size="14.00">0.95, 1</text>
</g>
<!-- cold_go_hot&#45;&gt;cold -->
<g id="edge14" class="edge"><title>cold_go_hot&#45;&gt;cold</title>
<path fill="none" stroke="black" d="M469.286,-212.144C446.774,-208.369 416.541,-203.066 390,-197.615 387.153,-197.03 384.214,-196.402 381.261,-195.753"/>
<polygon fill="black" stroke="black" points="381.803,-192.287 371.278,-193.498 380.261,-199.115 381.803,-192.287"/>
<text text-anchor="middle" x="412" y="-210.415" font-family="Times,serif" font-size="14.00">0.05, &#45;1</text>
</g>
<!-- hot_go_cold&#45;&gt;hot -->
<g id="edge6" class="edge"><title>hot_go_cold&#45;&gt;hot</title>
<path fill="none" stroke="black" d="M150.512,-81.7282C127.184,-96.7781 95.4938,-118.497 70,-140.615 63.3528,-146.382 56.6341,-153.071 50.5463,-159.531"/>
<polygon fill="black" stroke="black" points="47.9245,-157.211 43.7316,-166.941 53.077,-161.95 47.9245,-157.211"/>
<text text-anchor="middle" x="92" y="-144.415" font-family="Times,serif" font-size="14.00">0.05, &#45;1</text>
</g>
<!-- hot_go_cold&#45;&gt;cold -->
<g id="edge7" class="edge"><title>hot_go_cold&#45;&gt;cold</title>
<path fill="none" stroke="black" d="M214.71,-85.4209C242.066,-107.341 282.488,-139.73 310.188,-161.926"/>
<polygon fill="black" stroke="black" points="308.002,-164.66 317.995,-168.181 312.38,-159.197 308.002,-164.66"/>
<text text-anchor="middle" x="274" y="-150.415" font-family="Times,serif" font-size="14.00">0.95, 1</text>
</g>
<!-- cold_go_cold&#45;&gt;hot -->
<g id="edge15" class="edge"><title>cold_go_cold&#45;&gt;hot</title>
<path fill="none" stroke="black" d="M472.193,-100.958C407.954,-56.6455 255.417,33.2373 132,-13.6151 74.8632,-35.3057 46.8949,-107.395 34.8362,-151.377"/>
<polygon fill="black" stroke="black" points="31.4357,-150.547 32.3016,-161.106 38.2096,-152.312 31.4357,-150.547"/>
<text text-anchor="middle" x="274" y="-16.4151" font-family="Times,serif" font-size="14.00">0.05, 1</text>
</g>
<!-- cold_go_cold&#45;&gt;cold -->
<g id="edge16" class="edge"><title>cold_go_cold&#45;&gt;cold</title>
<path fill="none" stroke="black" d="M467.579,-137.562C441.509,-147.827 406.161,-161.745 379.777,-172.134"/>
<polygon fill="black" stroke="black" points="378.164,-169.008 370.142,-175.928 380.729,-175.521 378.164,-169.008"/>
<text text-anchor="middle" x="412" y="-172.415" font-family="Times,serif" font-size="14.00">0.95, &#45;1</text>
</g>
<!-- hot_go_random&#45;&gt;hot -->
<g id="edge8" class="edge"><title>hot_go_random&#45;&gt;hot</title>
<path fill="none" stroke="black" d="M132.932,-251.856C112.451,-247.962 89.1262,-241.457 70,-230.615 62.6827,-226.467 55.7983,-220.707 49.7728,-214.72"/>
<polygon fill="black" stroke="black" points="52.0297,-212.011 42.6319,-207.119 46.9278,-216.804 52.0297,-212.011"/>
<text text-anchor="middle" x="92" y="-251.415" font-family="Times,serif" font-size="14.00">0.5, &#45;1</text>
</g>
<!-- hot_go_random&#45;&gt;cold -->
<g id="edge9" class="edge"><title>hot_go_random&#45;&gt;cold</title>
<path fill="none" stroke="black" d="M230.961,-236.697C254.605,-225.936 283.002,-213.012 305.026,-202.988"/>
<polygon fill="black" stroke="black" points="306.697,-206.073 314.349,-198.745 303.797,-199.702 306.697,-206.073"/>
<text text-anchor="middle" x="274" y="-228.415" font-family="Times,serif" font-size="14.00">0.5, 1</text>
</g>
<!-- cold_go_random&#45;&gt;hot -->
<g id="edge17" class="edge"><title>cold_go_random&#45;&gt;hot</title>
<path fill="none" stroke="black" d="M453.859,-332.862C381.748,-347.281 243.717,-366.921 132,-335.615 101.942,-327.192 90.544,-326.118 70,-302.615 50.1222,-279.875 39.1076,-247.115 33.2169,-222.205"/>
<polygon fill="black" stroke="black" points="36.6278,-221.419 31.0641,-212.403 29.7908,-222.921 36.6278,-221.419"/>
<text text-anchor="middle" x="274" y="-355.415" font-family="Times,serif" font-size="14.00">0.5, 1</text>
</g>
<!-- cold_go_random&#45;&gt;cold -->
<g id="edge18" class="edge"><title>cold_go_random&#45;&gt;cold</title>
<path fill="none" stroke="black" d="M464.332,-288.989C436.333,-265.365 399.021,-233.883 373.2,-212.097"/>
<polygon fill="black" stroke="black" points="375.147,-209.16 365.247,-205.386 370.633,-214.51 375.147,-209.16"/>
<text text-anchor="middle" x="412" y="-266.415" font-family="Times,serif" font-size="14.00">0.5, &#45;1</text>
</g>
</g>
</svg>
